<svg id="tools-rosechart" xmlns="http://www.w3.org/2000/svg" viewBox="0 0 900 750">
  <g id="graph-base">
    <path class="cls-1" d="M500,59V400H159C159,212,312,59,500,59Z" transform="translate(-28 -25)"/>
    <path class="cls-2" d="M500,59V400H841C841,212,688,59,500,59Z" transform="translate(-28 -25)"/>
    <path class="cls-3" d="M500,741V400H159C159,588,312,741,500,741Z" transform="translate(-28 -25)"/>
    <path class="cls-4" d="M500,741V400H841C841,588,688,741,500,741Z" transform="translate(-28 -25)"/>
  </g>
  <g id="graph-flash">
    <path class="cls-2" d="M632,268h0s0,0,0,0a187,187,0,0,0-132-55h-1V401H625a125,125,0,0,0-37-88Zm0,0h0Z" transform="translate(-28 -25)"/>
    <path class="cls-1" d="M499,88V401H187A313,313,0,0,1,499,88Z" transform="translate(-28 -25)"/>
    <path class="cls-3" d="M499,401V713A312,312,0,0,1,188,401H499Z" transform="translate(-28 -25)"/>
    <path class="cls-4" d="M499,401H625a125,125,0,0,1-36,87l-44-44a63,63,0,0,1-44,18h-1V401Z" transform="translate(-28 -25)"/>
  </g>
  <g id="graph-photoshop">
    <path class="cls-1" d="M499,88V401H187a312,312,0,0,1,92-221h0a312,312,0,0,1,58-46h1a312,312,0,0,1,77-33h11l7-2h7A314,314,0,0,1,499,88Z" transform="translate(-28 -25)"/>
    <path class="cls-3" d="M499,401v61a62,62,0,0,1-43-18h0l43-43h0Z" transform="translate(-28 -25)"/>
  </g>
  <g id="graph-illustrator">
    <path class="cls-1" d="M500,88V400H188A312,312,0,0,1,500,88Z" transform="translate(-28 -25)"/>
    <path class="cls-2" d="M588,312a125,125,0,0,1,37,88H500V213a187,187,0,0,1,133,55Z" transform="translate(-28 -25)"/>
    <path class="cls-3" d="M500,400l-44,44a62,62,0,0,1-18-44h63Z" transform="translate(-28 -25)"/>
    <path class="cls-4" d="M625,400A125,125,0,0,1,500,525V400H625Z" transform="translate(-28 -25)"/>
  </g>
  <g id="graph-premiere">
    <path class="cls-1" d="M500,150V400H188a311,311,0,0,1,91-221l44,44A249,249,0,0,1,500,150Z" transform="translate(-28 -25)"/>
    <path class="cls-2" d="M588,312l-44,44-44,44V275A125,125,0,0,1,588,312Z" transform="translate(-28 -25)"/>
    <path class="cls-3" d="M500,400V713a311,311,0,0,1-221-91l44-44,88-88,44-44Z" transform="translate(-28 -25)"/>
  </g>
  <g id="graph-omnigraffle">
    <path class="cls-1" d="M500,275V400H375A125,125,0,0,1,500,275Z" transform="translate(-28 -25)"/>
    <path class="cls-2" d="M588,312l-44,44a62,62,0,0,1,18,44H500V213a187,187,0,0,1,133,55Z" transform="translate(-28 -25)"/>
    <path class="cls-3" d="M500,400l-44,44a62,62,0,0,1-18-44h63Z" transform="translate(-28 -25)"/> 
  </g>
  <g id="graph-axure">
    <path class="cls-1" d="M456,356a62,62,0,0,1,44-18v62H438A62,62,0,0,1,456,356Z" transform="translate(-28 -25)"/>
    <path class="cls-2" d="M633,267a187,187,0,0,1,55,132H500V88a311,311,0,0,1,221,91Z" transform="translate(-28 -25)"/>
    <path class="cls-3" d="M500,399v64a62,62,0,0,1-44-18l-44,44-88,88a249,249,0,0,1-73-177H500Z" transform="translate(-28 -25)"/>
    <path class="cls-4" d="M841,399H750a249,249,0,0,1-73,177l-44-44a187,187,0,0,1-133,55V399H841Z" transform="translate(-28 -25)"/>
  </g>
  <g id="graph-sketch">
    <path class="cls-1" d="M500,150V400H313a187,187,0,0,1,55-133l-44-44A249,249,0,0,1,500,150Z" transform="translate(-28 -25)"/>
    <path class="cls-2" d="M813,400H500V88A312,312,0,0,1,813,400Z" transform="translate(-28 -25)"/>
    <path class="cls-4" d="M625,400A125,125,0,0,1,500,525V400H625Z" transform="translate(-28 -25)"/>
  </g>
  <g id="graph-invision">
    <path class="cls-2" d="M813,400H500V88A312,312,0,0,1,813,400Z" transform="translate(-28 -25)"/>
    <path class="cls-3" d="M500,400v63a62,62,0,0,1-44-18l-44,44-44,44a187,187,0,0,1-55-133H500Z" transform="translate(-28 -25)"/>
  </g>
  <g id="graph-css3">
    <path class="cls-1" d="M500,88V400H188A312,312,0,0,1,500,88Z" transform="translate(-28 -25)"/>
    <path class="cls-3" d="M500,400V713a311,311,0,0,1-221-91l44-44,88-88a125,125,0,0,1-37-88H500Z" transform="translate(-28 -25)"/>
  </g>
  <g id="graph-html5">
    <path class="cls-2" d="M721,179l-88,88-44,44-44,44a62,62,0,0,1,18,44H500V88A311,311,0,0,1,721,179Z" transform="translate(-28 -25)"/>
    <path class="cls-3" d="M500,400l-44,44-44,44-44,44a187,187,0,0,1-55-133H500Z" transform="translate(-28 -25)"/>
    <path class="cls-4" d="M721,621a311,311,0,0,1-221,91V400H688a187,187,0,0,1-55,133l44,44Z" transform="translate(-28 -25)"/>
  </g>
  <g id="graph-javascript">
    <path class="cls-1" d="M500,213V400H313A187,187,0,0,1,500,213Z" transform="translate(-28 -25)"/>
    <path class="cls-2" d="M813,400H500V150a249,249,0,0,1,177,73l44-44A311,311,0,0,1,813,400Z" transform="translate(-28 -25)"/>
    <path class="cls-3" d="M500,400V713A312,312,0,0,1,188,400H500Z" transform="translate(-28 -25)"/>
    <path class="cls-4" d="M813,400A312,312,0,0,1,500,713V400H813Z" transform="translate(-28 -25)"/>
  </g>
  <g id="lables">
    <text transform="translate(241 24)">Look</text>
    <text transform="translate(643 24)">Journey</text>
    <text transform="translate(41 225)">Feel</text>
    <text transform="translate(847 225)">>Task</text>
    <text transform="translate(833 558)">Data</text>
    <text transform="translate(0 531)">Interaction</text>
    <text transform="translate(168 733)">Transition</text>
    <text transform="translate(676 733)">Content</text>
  </g>
  <g id="axises">
    <g id="circles">
      <path class="cls-7" d="M813,400C813,227,673,88,500,88S188,227,188,400,327,713,500,713,813,573,813,400Z" transform="translate(-28 -25)"/>
      <path class="cls-7" d="M500,650c-138,0-250-112-250-250S362,150,500,150,750,262,750,400,638,650,500,650Z" transform="translate(-28 -25)"/>
      <path class="cls-7" d="M688,400A188,188,0,1,0,500,588,187,187,0,0,0,688,400Z" transform="translate(-28 -25)"/>
      <path class="cls-7" d="M500,525A125,125,0,1,1,625,400,125,125,0,0,1,500,525Z" transform="translate(-28 -25)"/>
      <path class="cls-7" d="M563,400a63,63,0,1,0-62,63A62,62,0,0,0,563,400Z" transform="translate(-28 -25)"/>
    </g>
    <g id="lines">
      <line class="cls-7" x1="472" y1="375" x2="472" y2="750"/>
      <line class="cls-7" x1="472" y1="375" x2="737" y2="640"/>
      <line class="cls-7" x1="472" y1="375" x2="847" y2="375"/>
      <line class="cls-7" x1="472" y1="375" x2="737" y2="110"/>
      <line class="cls-7" x1="472" y1="375" x2="472"/>
      <line class="cls-7" x1="472" y1="375" x2="207" y2="110"/>
      <line class="cls-7" x1="472" y1="375" x2="97" y2="375"/>
      <line class="cls-7" x1="472" y1="375" x2="207" y2="640"/>
    </g>
  </g>
</svg>